<svg width="13" height="13" viewBox="0 0 13 13" fill="none" xmlns="http://www.w3.org/2000/svg">
<g id="vuesax/outline/brush">
<g id="brush">
<path id="Vector" d="M5.89391 9.61459C5.81891 9.61459 5.74891 9.59459 5.68391 9.54959C5.57891 9.47959 5.51891 9.36459 5.51891 9.23959C5.51891 9.16459 5.51391 9.08459 5.50391 9.00459C5.45891 8.64959 5.29891 8.33959 5.02891 8.06959C4.75891 7.79959 4.42391 7.62959 4.06391 7.58459C4.00391 7.57959 3.91891 7.57459 3.83891 7.57959C3.70891 7.58959 3.58891 7.53459 3.51391 7.42959C3.43891 7.32959 3.41891 7.19459 3.45891 7.07459C3.53391 6.86959 3.64391 6.68459 3.77391 6.53459L4.54391 5.56459C5.86891 3.90959 8.55391 1.91959 10.5189 1.12959C10.9339 0.969587 11.3789 1.06459 11.6839 1.36459C11.9989 1.67959 12.0939 2.12959 11.9289 2.53959C11.1389 4.50959 9.15391 7.18959 7.49891 8.51459L6.51391 9.30459C6.32891 9.43959 6.17891 9.52459 6.02891 9.58459C5.98891 9.60459 5.93891 9.61459 5.89391 9.61459ZM4.44891 6.89959C4.86891 7.00959 5.24391 7.22959 5.55891 7.54459C5.87391 7.85459 6.08391 8.21459 6.18891 8.61459L7.03391 7.93459C8.60391 6.67959 10.4889 4.13459 11.2339 2.26459C11.3089 2.07959 11.2039 1.94959 11.1539 1.90459C11.1189 1.86959 10.9889 1.75959 10.7889 1.83459C8.92891 2.58459 6.38391 4.46959 5.12391 6.03959L4.44891 6.89959Z" fill="#515151"/>
<path id="Vector_2" d="M2.71889 11.8046C2.34389 11.8046 1.98389 11.6546 1.71389 11.3846C1.40389 11.0746 1.25389 10.6446 1.30389 10.2046L1.43889 8.97459C1.56889 7.75459 2.56889 6.84959 3.80889 6.82459C3.90389 6.81959 4.02889 6.82459 4.14389 6.83459C4.68889 6.90459 5.17389 7.14959 5.56389 7.53959C5.94889 7.92459 6.17889 8.38459 6.24889 8.89959C6.26389 9.00959 6.27389 9.12959 6.27389 9.23459C6.27389 9.89459 6.01889 10.5096 5.55889 10.9746C5.17389 11.3546 4.67889 11.5896 4.11889 11.6596L2.88389 11.7946C2.82889 11.7996 2.77389 11.8046 2.71889 11.8046ZM3.90389 7.57959C3.88389 7.57959 3.85889 7.57959 3.83889 7.57959C3.08389 7.59459 2.28389 8.10959 2.18389 9.05959L2.04889 10.2896C2.02389 10.4996 2.09889 10.7046 2.24389 10.8546C2.38889 10.9996 2.59389 11.0746 2.79889 11.0496L4.02889 10.9146C4.41389 10.8646 4.75889 10.7046 5.01889 10.4446C5.33889 10.1246 5.51889 9.69459 5.51889 9.23459C5.51889 9.15959 5.51389 9.07959 5.50389 8.99959C5.45889 8.64459 5.29889 8.33459 5.02889 8.06459C4.75889 7.79459 4.42389 7.62459 4.06389 7.57959C4.02389 7.57959 3.96389 7.57959 3.90389 7.57959Z" fill="#515151"/>
<path id="Vector_3" d="M7.79884 8.03959C7.59384 8.03959 7.42384 7.86959 7.42384 7.66459C7.42384 6.56459 6.52884 5.67459 5.43384 5.67459C5.22884 5.67459 5.05884 5.50459 5.05884 5.29959C5.05884 5.09459 5.22384 4.92459 5.42884 4.92459C6.93884 4.92459 8.16884 6.15459 8.16884 7.66459C8.17384 7.87459 8.00384 8.03959 7.79884 8.03959Z" fill="#515151"/>
</g>
</g>
</svg>
