<svg width="174" height="174" viewBox="0 0 174 174" fill="none" xmlns="http://www.w3.org/2000/svg">
<g id="color wheel">
<mask id="mask0_1431_443" style="mask-type:alpha" maskUnits="userSpaceOnUse" x="0" y="0" width="174" height="174">
<rect id="Rectangle 648" width="174" height="174" rx="4" fill="#D9D9D9"/>
</mask>
<g mask="url(#mask0_1431_443)">
<g id="Ellipse 3" filter="url(#filter0_f_1431_443)">
<path d="M191.522 127.56C191.522 150.081 137.711 114.507 77.7069 114.507C17.7031 114.507 7.25 123.556 7.25 101.034C7.25 78.5125 108.851 23.5625 168.854 23.5625C228.858 23.5625 191.522 105.038 191.522 127.56Z" fill="#7000FF"/>
</g>
<g id="Ellipse 2" filter="url(#filter1_f_1431_443)">
<path d="M217.749 180.307C217.749 209.326 155.883 207.792 83.4963 207.792C11.1093 207.792 -47.572 184.267 -47.572 155.247C-47.572 126.228 -69.5481 84.5143 2.83889 84.5143C75.2259 84.5143 217.749 151.287 217.749 180.307Z" fill="black"/>
</g>
<g id="Ellipse 1" filter="url(#filter2_f_1431_443)">
<path d="M162 8.28369C162 32.9798 129.634 53 59.0871 53C-11.4597 53 -34 32.9798 -34 8.28369C-34 -16.4124 -9.39106 -44 61.1557 -44C131.702 -44 162 -16.4124 162 8.28369Z" fill="white"/>
</g>
</g>
</g>
<defs>
<filter id="filter0_f_1431_443" x="-92.75" y="-76.4375" width="395.75" height="311.469" filterUnits="userSpaceOnUse" color-interpolation-filters="sRGB">
<feFlood flood-opacity="0" result="BackgroundImageFix"/>
<feBlend mode="normal" in="SourceGraphic" in2="BackgroundImageFix" result="shape"/>
<feGaussianBlur stdDeviation="50" result="effect1_foregroundBlur_1431_443"/>
</filter>
<filter id="filter1_f_1431_443" x="-120.709" y="14.5143" width="408.457" height="263.291" filterUnits="userSpaceOnUse" color-interpolation-filters="sRGB">
<feFlood flood-opacity="0" result="BackgroundImageFix"/>
<feBlend mode="normal" in="SourceGraphic" in2="BackgroundImageFix" result="shape"/>
<feGaussianBlur stdDeviation="35" result="effect1_foregroundBlur_1431_443"/>
</filter>
<filter id="filter2_f_1431_443" x="-104" y="-114" width="336" height="237" filterUnits="userSpaceOnUse" color-interpolation-filters="sRGB">
<feFlood flood-opacity="0" result="BackgroundImageFix"/>
<feBlend mode="normal" in="SourceGraphic" in2="BackgroundImageFix" result="shape"/>
<feGaussianBlur stdDeviation="35" result="effect1_foregroundBlur_1431_443"/>
</filter>
</defs>
</svg>
